<svg viewBox="0 0 200 105" xmlns="http://www.w3.org/2000/svg">
  <rect width="200" height="105" fill="#0d0005"/>
  <path fill="#CC1020" d="M67.22,78.24,18.38,103.57c-7.07,3.09-14.77-2.29-15.91-11.15A319.7,319.7,0,0,1,0,52.23,319.9,319.9,0,0,1,2.48,12C3.61,3.16,11.29-2.2,18.34.88L67.22,26.22C71.92,28.27,75,33.59,75,39.54V64.92C75,70.87,71.92,76.19,67.22,78.24Z"/>
  <path fill="#CC1020" d="M131.55,78.24l48.83,25.33c7.08,3.09,14.78-2.29,15.91-11.15a319.4,319.4,0,0,0,2.48-40.19A317.7,317.7,0,0,0,196.28,12C195.15,3.16,187.48-2.2,180.43.88L131.55,26.22c-4.7,2.05-7.82,7.37-7.82,13.32V64.92C123.73,70.87,126.85,76.19,131.55,78.24Z"/>
  <path fill="#e03040" d="M88.88,29a7.17,7.17,0,0,0-7.17,7.17V68.3a7.17,7.17,0,0,0,7.17,7.16h0a7.17,7.17,0,0,0,7.17-7.16V36.15A7.17,7.17,0,0,0,88.88,29Z"/>
  <path fill="#e03040" d="M109.89,29a7.17,7.17,0,0,0-7.17,7.17V68.3a7.17,7.17,0,0,0,7.17,7.16h0a7.17,7.17,0,0,0,7.16-7.16V36.15A7.17,7.17,0,0,0,109.89,29Z"/>
</svg>
